<?xml version="1.0" standalone="no"?><!DOCTYPE svg PUBLIC "-//W3C//DTD SVG 1.1//EN" "http://www.w3.org/Graphics/SVG/1.1/DTD/svg11.dtd"><svg t="1758683973215" class="icon" viewBox="0 0 1024 1024" version="1.1" xmlns="http://www.w3.org/2000/svg" p-id="1790" xmlns:xlink="http://www.w3.org/1999/xlink" width="200" height="200"><path d="M907.636364 116.363636m-116.363637 0a116.363636 116.363636 0 1 0 232.727273 0 116.363636 116.363636 0 1 0-232.727273 0Z" fill="#E20606" p-id="1791"></path><path d="M465.454545 190.836364c-168.029091 0-319.115636 105.658182-452.514909 315.950545a53.061818 53.061818 0 0 0 0 56.971636C146.338909 774.004364 297.472 879.709091 465.454545 879.709091c168.029091 0 319.115636-105.658182 452.51491-315.950546a53.061818 53.061818 0 0 0 0-56.971636C784.570182 296.541091 633.483636 190.836364 465.454545 190.836364z m0 60.509091c139.682909 0 268.194909 88.064 386.094546 265.076363l10.705454 16.290909v5.12C741.376 725.690182 609.326545 819.2 465.454545 819.2c-139.682909 0-268.194909-88.064-386.094545-265.076364l-10.705455-16.290909v-5.12C189.533091 344.855273 321.582545 251.345455 465.454545 251.345455z m0 125.672727c-88.203636 0-159.697455 70.842182-159.697454 158.254545S377.250909 693.527273 465.454545 693.527273s159.697455-70.842182 159.697455-158.254546-71.493818-158.254545-159.650909-158.254545z m0 60.509091c54.458182 0 98.583273 43.752727 98.583273 97.745454 0 53.992727-44.125091 97.745455-98.583273 97.745455a98.210909 98.210909 0 0 1-98.583272-97.745455c0-53.992727 44.171636-97.745455 98.583272-97.745454z" fill="#8E9AA8" p-id="1792"></path></svg>