<?xml version="1.0" encoding="UTF-8"?>
<svg id="_图层_1" data-name="图层_1" xmlns="http://www.w3.org/2000/svg" version="1.1" viewBox="0 0 32 32">
  <!-- Generator: Adobe Illustrator 29.2.1, SVG Export Plug-In . SVG Version: 2.1.0 Build 116)  -->
  <defs>
    <style>
      .st0 {
        fill: #657386;
      }

      .st1 {
        fill: #ffa800;
      }
    </style>
  </defs>
  <path class="st0" d="M26.85,15.91H7.78c-.69,0-1.3.45-1.51,1.1l-1.66,5.12v-13.81h7.95c0,1.76,1.42,3.18,3.17,3.18h7.95v2.39c0,.43.36.79.79.79s.79-.36.79-.79c0,0,0,0,0-.01h0v-2.37c0-.88-.71-1.59-1.59-1.59h-7.95c-.88,0-1.59-.71-1.59-1.59,0-.42-.17-.82-.46-1.12s-.7-.46-1.12-.46h-7.95c-.88,0-1.59.71-1.59,1.59v18.71c0,.88.71,1.59,1.59,1.59h19.07c.69,0,1.3-.44,1.52-1.1l3.25-10.01c0-.88-.71-1.59-1.59-1.59Z"/>
  <path class="st1" d="M28.42,7.53c-.99-1.91-4.1-5.9-11.8-1.74,0,0,8.48-2.1,9.5,2.58l-1.41.03,3.47,2.18,1.28-3.9-1.04.84Z"/>
</svg>